PathFileType	4	(X/Y/Z)	Patient4_TMGait_0pt6_02_left_14.trc.trc
DataRate	CameraRate	NumFrames	NumMarkers	Units	OrigDataRate	OrigDataStartFrame	OrigNumFrames
82.840236686391	82.840236686391	6	33	mm	82.840236686391	89	       141
Frame#	Time	Sacral			L.Shoulder			Chest			R.Shoulder			Neck			R.ASIS			L.ASIS			R.Thigh.Superior			R.Thigh.Lateral			R.Thigh.Inferior			R.Patella			L.Thigh.Superior			L.Thigh.Lateral			L.Thigh.Inferior			L.Patella			L.Shank.Superior			L.Shank.Lateral			L.Shank.Inferior			R.Shank.Superior			R.Shank.Lateral			R.Shank.Inferior			R.Heel			R.Midfoot.Superior			R.Midfoot.Lateral			R.Toe			L.Heel			L.Midfoot.Lateral			L.Midfoot.Superior			L.Toe			L.Elbow			L.Wrist			R.Elbow			R.Wrist			
		X1	Y1	Z1	X2	Y2	Z2	X3	Y3	Z3	X4	Y4	Z4	X5	Y5	Z5	X6	Y6	Z6	X7	Y7	Z7	X8	Y8	Z8	X9	Y9	Z9	X10	Y10	Z10	X11	Y11	Z11	X12	Y12	Z12	X13	Y13	Z13	X14	Y14	Z14	X15	Y15	Z15	X16	Y16	Z16	X17	Y17	Z17	X18	Y18	Z18	X19	Y19	Z19	X20	Y20	Z20	X21	Y21	Z21	X22	Y22	Z22	X23	Y23	Z23	X24	Y24	Z24	X25	Y25	Z25	X26	Y26	Z26	X27	Y27	Z27	X28	Y28	Z28	X29	Y29	Z29	X30	Y30	Z30	X31	Y31	Z31	X32	Y32	Z32	X33	Y33	Z33	

89	18.272285714286	775.662073144866	995.837311944765	495.713836498262	944.900561446352	1432.581609221005	324.619319878205	1044.340932194158	1361.012960325936	486.354338412846	953.929276156386	1431.492472060033	657.550095684140	937.320796451652	1489.987757523767	476.273035677290	1003.920156402780	939.575349437580	616.225211339009	989.885613745290	955.805783183630	341.198257789883	1068.314200050952	749.986691611290	585.569715815915	1000.624845362725	633.276397446403	645.058968585449	1085.637105289930	590.724823380439	566.112079328822	1097.329917512011	501.026545295577	573.347513124994	1022.412422958636	732.762121778249	364.875549911722	926.446253431612	621.635673424282	303.056045478554	1008.987377134538	533.378939348132	359.634960324617	996.790409569007	448.403968818711	357.718470400372	927.157551078751	392.675226947609	355.766950578871	785.334978498130	348.191785916676	313.579715792104	773.455418599847	221.964267793479	374.116603250101	1074.119740307121	410.511051067678	580.779416340989	1007.947138411797	301.989328170696	640.719183002751	1059.811665938306	210.575928000282	579.134310817677	937.865777565893	41.962468729489	543.779022429130	1106.577894043946	98.728683217126	583.559563455365	1019.773042802776	36.957918416348	620.800687941732	1227.282409575121	49.456549190126	613.431258944953	584.381990436814	150.323221316348	419.865700389275	642.625090673833	106.743884843929	340.031399273787	746.035793959974	122.264819687754	358.766293696911	829.984094291597	31.918434053524	333.699333840912	985.065638543722	1091.088811615204	188.368685770866	1233.728051896828	1025.312302873782	200.466086362021	865.016483942436	1091.976332410495	765.277700256277	889.896690968778	831.982571688629	762.710108143169	
90	18.284357142857	775.310816881918	996.702698721325	498.517164445546	943.346909415679	1433.587409337885	326.737014368823	1044.229492761064	1361.690616935751	487.479975421845	955.443705591557	1431.870836316952	659.570256750413	937.109614960905	1490.684046813641	478.610470934127	1004.237735689196	940.422951290391	617.596414834192	988.760379195370	956.063588438313	342.391198252336	1066.272606791499	749.121361780042	588.282680078167	996.823355726707	633.315820279076	647.031224287365	1081.499272296764	589.955669114739	568.153468448871	1091.978952371399	500.390049578719	574.985868522359	1026.971585190982	735.434643741041	366.124083738383	935.453042557818	621.893881028709	303.448325208089	1021.055130400500	535.544851587682	359.546725824352	1010.127219630413	449.360000667836	356.961907605891	938.696309064375	393.766432917207	355.449907744140	795.070482277292	354.228226280885	314.008870497898	779.450038401608	228.373650743386	374.317323906936	1068.484173795928	410.032602085394	582.190518153804	1001.844630295135	301.629335626453	641.786687918784	1053.229972032366	210.205526434507	579.829629131549	930.637983532702	41.897785577164	543.936990110145	1099.363310366749	98.590061860902	583.767447449244	1012.505375501768	36.855530113036	620.978999368627	1220.048043110095	49.288561622059	613.631669311702	588.019313835072	166.033137142267	420.744920821264	643.555451954359	119.195493055014	340.630578026307	748.026520787735	128.538071426678	359.001708562802	825.763777953788	31.453946199035	333.479913281272	980.101855368762	1091.151945651215	191.119166348717	1226.760585877573	1016.818357107056	201.921680359009	874.780766792168	1090.132091593100	768.985773294405	910.745211833836	831.368311159396	765.981428593434	
91	18.296428571429	774.790386166908	997.485908310031	501.214731607381	941.610461436572	1434.443126564453	328.680444892647	1044.016974598869	1362.202254591811	488.370779067734	956.965162995616	1432.079076762996	661.402422249058	936.807442846678	1491.262506079742	480.787297001963	1004.322764301060	941.158224720527	618.938311827524	987.547347142033	956.113834672803	343.508549856781	1064.041197734082	748.280255609508	590.935381413933	992.933758847142	633.331283879410	648.969085238821	1077.237302273387	589.196794031304	570.135943566544	1086.506624129899	499.777641101820	576.624191264540	1031.360106010784	738.369591153015	367.366009366291	944.405683554848	622.592799485751	303.660328764181	1032.892431827218	538.299127737368	359.412564123803	1023.425933893656	451.001370308665	356.238189234679	950.499212126167	395.372626380921	355.090578228704	805.364296252321	360.331239283079	314.345449048376	786.340895324426	234.937310473699	374.552314312576	1062.760709315055	409.556249498561	583.571421817188	995.685053295417	301.257701198809	642.823968022673	1046.596694648613	209.830963024672	580.503129348688	923.355662665896	41.848519473772	544.099684985364	1092.129963738667	98.427789503774	583.975061699585	1005.192313774317	36.754639870634	621.150421003069	1212.778109525518	49.040296515750	613.806179151729	593.111513595919	181.111746508979	421.726855846953	646.037000628771	131.517666034846	341.262659548364	751.283838251833	135.203621418449	359.263573470789	823.183772637140	31.520104539758	333.057801326960	974.881261990781	1090.999723173657	193.790901240438	1219.027403225389	1007.506081277860	203.282321307727	884.984634753316	1088.343363750609	772.566168713252	932.273669697208	831.298829399166	769.060543481757	
92	18.308500000000	774.115390580870	998.203361103077	503.794124309089	939.744662481786	1435.168583253084	330.434794544937	1043.709025997186	1362.575647434496	489.040994798301	958.454170956973	1432.165561331138	663.033635355555	936.440498692986	1491.755473254177	482.774591959456	1004.186939941057	941.815745742677	620.268555029630	986.265839011638	956.043394647334	344.609050833715	1061.674663959352	747.515498507184	593.430191899040	989.035638275852	633.349843289688	650.822635879824	1072.918606630942	588.470414621322	572.000241661405	1080.984026985463	499.203274601156	578.193859696398	1035.484294769390	741.588659033405	368.622291061414	953.123620379575	623.795919128382	303.731256440405	1044.316278957369	541.674666280068	359.234361798587	1036.512341243600	453.368719443513	355.506989516613	962.411522830309	397.522558179664	354.659774831392	816.048714141821	366.362111326890	314.586779430478	794.125012741939	241.430036926365	374.758767557107	1057.009376327579	409.099997340047	584.876512989446	989.515469513140	300.907636394820	643.796975134250	1039.948751474385	209.471215682048	581.134682035459	916.039185920671	41.819120935815	544.271398858441	1084.892084738431	98.268317116680	584.189520320118	997.855407254455	36.665729657246	621.319247003845	1205.488532820483	48.753636128713	613.964028528139	599.636290819571	194.897788285758	422.745174467804	650.193721571202	143.135651592047	341.870772051069	755.963823798129	141.967906402260	359.474843434850	822.706335088152	32.237331166109	332.402201691557	969.424446347020	1090.647485979053	196.408954847034	1210.459509354058	997.403416305293	204.554304567957	895.654590948159	1086.661605330143	775.954660333680	954.427752664949	831.863908184256	771.872733070825	
93	18.320571428571	773.299401751667	998.880653059196	506.252181173525	937.802763166080	1435.790844712945	331.994792233680	1043.313321377230	1362.852518026511	489.515307735959	959.872891997125	1432.192256608590	664.461269657510	936.032813587814	1492.200541862351	484.552604337905	1003.854883074032	942.427613364645	621.588053707522	984.918210569877	955.959657649371	345.745315697062	1059.215857680528	746.850761323357	595.698543752930	985.163234448581	633.387933719916	652.543536190393	1068.573651292370	587.784628163323	573.698330645754	1075.445613990999	498.672578870532	579.627899592703	1039.272779834969	745.103257558341	369.907897174782	961.456347605779	625.536448611880	303.704738238486	1055.187849709085	545.675487227294	359.012862129642	1049.243142467564	456.475835268828	354.738412044512	974.310323630394	400.215628260441	354.137537513509	826.985827990691	372.157941306260	314.724370818683	802.817441451411	247.605653017914	374.871041842968	1051.257556333948	408.676717432297	586.063781146479	983.352937533137	300.602715886182	644.668532774855	1033.306073457831	209.141519731871	581.705035338647	908.704992163311	41.810020449109	544.451430183138	1077.658358585911	98.130622239816	584.412361440780	990.511366415254	36.594818334435	621.486769460986	1198.191009649399	48.465526289573	614.112495124304	607.553618977085	206.774516694768	423.709350354771	656.126753313922	153.486355356883	342.381166322546	762.219215265011	148.497492672930	359.558207850664	824.769839464264	33.640762718380	331.496762222370	963.750382981103	1090.128949156505	199.000097368506	1200.985317177062	986.568970195508	205.751464506891	906.791214045011	1085.159218503343	779.092808618411	977.147791662275	833.172806423887	774.331861420400	
94	18.332642857143	772.357928912567	999.547458757028	508.593100789392	935.834019970961	1436.338219035537	333.364276441905	1042.840497330231	1363.079777653774	489.824963094435	961.192135657824	1432.224694604162	665.691337557773	935.604671821991	1492.634121519877	486.111498369970	1003.359655377694	943.017648828812	622.881215421725	983.489584528505	955.972449107178	346.950383070478	1056.691962327036	746.285014859936	597.694402504506	981.318405441241	633.454414707257	654.090246922500	1064.202118837565	587.137441005837	575.193118724610	1069.895749657025	498.185229215779	580.869358392475	1042.677311371648	748.911042316607	371.228484656403	969.291076372045	627.813105752287	303.625167996454	1065.410789103633	550.274133010672	358.754996220562	1061.506044884277	460.307390801052	353.926658044743	986.103929125645	403.420168183368	353.523228582691	838.073712381096	377.540027779402	314.744492893562	812.443769792368	253.216347746493	374.829386137237	1045.506150557065	408.294000188832	587.097190079072	977.195069890097	300.356828421676	645.406505004645	1026.674551956371	208.852140106669	582.196188121726	901.364237705493	41.818408002397	544.635316387948	1070.432081577099	98.025112124657	584.639761040261	983.171183790437	36.543994408645	621.652094665841	1190.892593990680	48.204355765004	614.255853357335	616.816815307848	216.226699877637	424.511339116950	663.908722812029	162.071813130736	342.708607925828	770.182323325718	154.450144016366	359.442915245180	829.736004466780	35.655523089763	330.338131811042	957.877083413751	1089.488427883312	201.589328751238	1190.537002423229	975.095446505666	206.893332037617	918.362726845015	1083.919994979270	781.932087236716	1000.361727181663	835.348557598941	776.346552755002	
